<svg xmlns="http://www.w3.org/2000/svg" viewBox="0 0 273.5 86.8">
    <path
        d="M273.33 40.86c.25-1-.3-2 .11-2.98.05-.11.05-.33-.02-.4-.57-.57-.44-1.22-.26-1.87.14-.52-.51-1-.04-1.52-.26-.11-.51-.22-.77-.33.26-.18.54-.34.78-.54.04-.04-.07-.25-.1-.38-.03-.16-.1-.33-.06-.47.27-1.08.04-2.22-.58-3.03-.11-.14-.13-.41-.09-.6.03-.13.22-.23.34-.34-.22-.17-.29-.69-.76-.31-.05.04-.23-.07-.35-.11.06-.11.09-.27.18-.32.19-.1.49-.09.6-.23.17-.22.47-.67-.13-.71-.85-.05-.5-.71-.34-.83.54-.42.29-.71-.09-.91-.46-.24-.49-.55-.39-.98.04-.19.06-.43-.01-.6-.57-1.28-1.06-2.61-1.79-3.79-.83-1.34-1.67-2.73-3.09-3.61-1.35-.83-2.61-1.76-3.61-3-.18-.22-.45-.37-.68-.55-.71-.54-1.43-1.07-2.12-1.63-.64-.52-1.26-1.07-1.89-1.61-.05-.04-.14-.04-.21-.06v.01c-.19-.09-.4-.15-.55-.27-.77-.62-1.52-1.25-2.63-.78-.09.04-.31-.06-.39-.16-.32-.42-1.01-.37-1.2-.95-.03-.08-.17-.14-.27-.17-2.01-.67-4.11-1.06-6.12-1.73-.15-.05-.35.03-.52.04-.19 0-.5.06-.54-.02-.35-.65-1.32-.03-1.6-.78-.93.22-1.67-.62-2.63-.42-.46.1-1.1.07-1.44-.18-1.01-.74-2.22-.2-3.27-.62-.4-.16-.89-.1-1.34-.11-1.19-.02-2.38 0-3.56-.05-.5-.02-1-.17-1.5-.25-.51-.08.4.66-.26.45-.3-.1-.53-.4-.83-.5-.3-.11-.64-.09-.96-.11-.56-.03-1.12-.03-1.68-.08-.89-.07-1.77-.19-2.66-.25-1.4-.09-2.8-.15-4.21-.19-.74-.02-1.49.28-2.2-.17-.06-.04-.28.14-.41.24-.09.06-.17.23-.23.22-.54-.11-1.07-.29-1.62-.37-.74-.11-1.49-.13-2.23-.22-.39-.05-.77-.17-1.16-.23-.4-.06-.81-.08-1.21-.12-.21-.02-.42-.09-.63-.09-.89 0-1.73-.77-2.66-.19-.34-.08-.96-.25-.97-.23-.34 1.1-.66.04-.97 0-.12-.02-.34-.16-.34-.15-.35.57-.5.14-.75-.1-.14-.13-.45-.1-.68-.1-.18 0-.37.12-.54.09-.18-.03-.34-.16-.51-.25.05.23.08.47.14.69.04.13.18.24.21.37.03.12-.04.25-.07.38-.08-.06-.17-.11-.22-.19-.24-.34-.47-.69-.71-1.03.13.39.27.79.4 1.18.07.19.14.39.2.58-.18-.07-.36-.15-.54-.19-.1-.02-.31.02-.31.05-.04.82-.45.38-.8.25-.33-.12-.69-.18-1.04-.27-.16.05-.32.09-.47.14-.18-.02-.36-.02-.53-.07-.14-.05-.25-.17-.38-.26.12-.04.34-.09.33-.13-.01-.25-.07-.49-.12-.74-.21-.19-.4-.39-.62-.55-.2-.14-.5-.36-.66-.29-.82.33-1.62-.08-2.42.05-.17.03-.33.23-.47.37-.06.06-.05.18-.08.28-.06-.08-.13-.15-.18-.23-.08-.14-.15-.29-.23-.44-.05.14-.11.28-.16.42-.25-.13-.49-.27-.74-.39-.36-.16-.78-.43-.66.34.01.07-.06.16-.1.24-.09-.06-.23-.11-.25-.19-.12-.54-.41-.46-.83-.32-.23.08-.57-.03-.81-.14-.37-.17-.55-.13-.58.3-.01.17-.04.34-.05.52-.55-.22-1.1-.43-1.65-.65-.39 1.04-.92-.09-1.36.1-.14.06-.23.23-.33.36-.56-.85-1.47-.55-2.17-.46-.62.07-.28.81-.29 1.28 0 .07-.2.21-.29.19-.11-.02-.29-.2-.27-.25.07-.2.3-.37.3-.56 0-.24-.15-.67-.26-.68-.68-.06-1.39-.12-2.04.02-.5.11-.93.59-1.34-.12-.02-.03-.26.01-.26.03-.06 1.21-.47.22-.68.09-.36-.23-.76-.9-.89.15-.12-.02-.25 0-.35-.05-.34-.16-.65-.39-1.01-.5-.27-.08-.46 1.03-.86.08-.07.13-.17.25-.2.39-.11.5-.19.76-.61.14-.18-.27-.57-.54-.89-.56-.89-.06-1.8-.02-2.69.03-1.32.08-2.63.07-3.94.02-.38-.01-.91-.29-.61.5.01.03-.26.2-.27.19-.49-.55-1.12-.41-1.76-.45-.59-.03-1.04-.1-1.63.22-.37.2-1.07-.21-1.63-.32-.13-.03-.3.11-.43.07-.45-.12-.76 1.16-1.31.14 0 0-.23.05-.28.12-.38.51-.78.19-1.18.06-.27-.09-.57-.34-.8-.28-.96.23-1.89.6-2.89.14-.13-.06-.35.08-.53.08-.42.01-.85 0-1.27 0h-3.19c-.02 0-.04.06-.06.09-.28.62-.61.28-.96.07-.13-.08-.33-.04-.5-.05.01.64-.24.35-.48.13-.29-.27-.77-.45-.81.02-.08.81-.52.29-.73.26-.56-.08-1.1-.31-1.66-.4-.86-.13-1.74.34-2.6-.1-.05-.03-.2 0-.2.02-.08 1.12-.48.11-.72.1-.23 0-.52-.13-.69-.04-.48.25-1.29-.1-1.46.74 0 0-.32 0-.44-.08-.21-.14-.35-.37-.55-.51-.13-.1-.33-.12-.49-.17-.01.17-.03.34-.04.5-.02.38-.12.67-.6.42-.23-.12-.47-.25-.65-.44-.6-.62-1.7-.52-2.21.22-.41-.52-1.58-.86-1.61-.56-.07.77-.31.23-.59.22-.36 0-1.27-.71-1.09.51-.08 0-.19.04-.25 0-.24-.15-.45-.34-.7-.47-.19-.1-.47-.24-.62-.18-.14.07-.17.38-.24.59-.04.12-.03.25-.05.38-.17-.03-.38-.02-.49-.11-.16-.14-.22-.38-.37-.53-.1-.11-.28-.15-.42-.22-.02.18-.06.36-.05.54 0 .16.07.33.11.49-.16-.09-.42-.16-.46-.29-.25-.97-.87-1.03-1.73-.84-.64.14-1.27.18-1.92.46-.58.24-1.44.12-2.08-.12-.89-.32-.97.2-1.11.75-.13.49-.33.51-.59.11-.11-.17-.18-.37-.24-.56-.23-.7-.81-.09-1.16-.31 0 .2.01.4.01.61 0 .14 0 .28-.01.43-.11-.08-.27-.13-.31-.23-.29-.83-.88-.83-1.6-.63-.51.14-1.1.37-1.55.24-.74-.22-.95-.03-.96.64 0 .1-.05.19-.07.29-.11-.08-.25-.14-.31-.25-.11-.18-.15-.41-.27-.59-.06-.09-.26-.16-.36-.13-.09.02-.16.19-.2.3-.05.14-.06.29-.08.43-.08-.11-.16-.24-.26-.34-.18-.18-.38-.35-.58-.52-.04.21-.07.41-.11.62-.03.13-.07.27-.1.4-.1-.08-.21-.15-.31-.23-.16-.12-.3-.28-.48-.36-.89-.4-.88-.39-.94.54 0 .15-.09.3-.15.44-.15-.15-.3-.3-.44-.46-.24-.27-.47-.54-.71-.81-.23.47-.53.35-.83.09-.09.19-.17.39-.26.58-.11-.22-.18-.49-.35-.65-.14-.13-.46-.23-.6-.15-1.1.59-2.14-.08-3.21-.08h-.64c.07.26.11.54.22.79.07.16.26.26.35.41.06.11.07.37.03.38-.15.06-.4.12-.48.04a1.5 1.5 0 0 1-.39-.62c-.32-.85-1.06-1.18-1.83-1.11-.84.08-1.64.08-2.46-.02-.27-.03-.56.14-.84.17-.16.02-.33-.06-.5-.09.02.16 0 .33.06.49.06.19.17.36.27.54-.22-.12-.46-.22-.65-.37-.19-.16-.31-.44-.51-.54-.23-.11-.77-.15-.78-.12-.24.86-.64.2-.98.12-.19-.04-.38-.09-.56-.13.09.15.17.3.26.44.04.06.11.11.13.18.03.08.02.18.03.27-.09-.03-.22-.04-.27-.1-.17-.19-.33-.39-.47-.6-.41-.59-.79-.54-1.15.02l-.78-.27c.03.25.05.51.08.76 0 .04.04.07.03.1-.02.13-.05.27-.07.4-.15-.08-.38-.12-.44-.24-.09-.18-.06-.41-.08-.62-.06-.48-.19-.58-.71-.33-.76.37-1.62.17-2.44.14-.3 0-.58-.2-.88-.31.15.25.29.49.43.74.05.09.11.19.16.28.06.11.11.23.16.34-.12-.03-.28-.02-.37-.1-.49-.4-1.03-.71-1.59-1.02-.92-.51-1.66-.03-2.46-.06-.39-.01-.77.41-1.04-.2 0 0-.31.1-.31.13.11.75-.22.3-.45.17-.29-.17-.7-.53-.87-.44-.46.24-.81.35-1.25 0-.06-.05-.39.11-.48.25-.11.18-.15.62-.13.62.94.23.32.65.15 1-.35-.3-.71-.58-1.03-.9-.2-.19-.34-.44-.51-.66 0 .31-.03.63.04.93.07.27.26.51.39.77.09.18.15.38.23.57-.2-.13-.4-.25-.58-.39-.08-.06-.12-.18-.16-.28-.36-.74-.58-1.67-1.78-1.2-.05.02-.13-.06-.2-.08-.59-.12-1.17-.23-1.76-.34-.63-.12-1.01.64-1.66.5-.01 0-.16.32-.11.39.09.12.33.13.43.24.18.19.31.43.43.65 0 0-.23.21-.3.19-.25-.08-.53-.18-.71-.35-.14-.14-.12-.42-.24-.6-.2-.31-.41-.79-.68-.84-.66-.14-1.37-.08-2.06-.08-.04 0-.09.18-.13.28-.22.55-.22.54-.61.12-.1-.11-.28-.21-.42-.2-.45.01-.89.05-1.33.13-.1.02-.2.22-.22.35-.03.16.03.32.05.49-.15-.09-.31-.17-.45-.27-.43-.32-.68-1.33-1.44-.34-.02.02-.18-.1-.28-.1-.34-.02-.71-.09-1.02 0-.35.11-.67.56-.98.54-.38-.02-.73-.43-1.12-.56-.23-.07-.53.08-.8.13V2l-.02.02c-.14.15-.27.3-.41.45-.39-.55-.55-.12-.8.16-.15.17-.4.25-.61.37-.13-.83-.8-.33-1.21-.46-.11-.04-.37.04-.37.05.1.96-.26.51-.6.2-.06-.05-.25 0-.37.05-.14.05-.28.21-.39.19-.81-.13-1.55-.64-2.46-.14-.33.18-.92-.19-1.38-.16-1.46.09-2.95.12-4.37.42-1.63.35-3.3.19-4.94.58-1.51.36-3.14.31-4.71.36-.42.02-.84-.2-.7.5-.14.02-.29.06-.43.04-.45-.08-.9-.29-1.33-.25-.93.1-1.85.32-2.77.52-1.2.26-2.49.37-3.56.91-.79.4-1.5.82-2.4.84-.36 0-.61.1-.33.53.03.05-.13.33-.22.34-.24.03-.5 0-.74-.07-1.11-.29-1.14-.29-1.78.73-.05.08-.19.18-.26.16-.38-.09-.74-.24-.85.37-.02.09-.57.22-.76.12-.37-.2-.49-.11-.82.13-.65.48-1.45.77-2.17 1.16-.63.34-1.24.71-1.85 1.08-.08.05-.17.19-.15.26.15.7-.19.82-.8.75-.13-.02-.31.2-.45.33-.15.13-.26.34-.44.41-1.07.4-1.88 1.1-2.19 2.17-.23.81-.23-.18-.36 0-.07.1-.24.12-.33.22-.29.29-.58.59-.83.91-.69.86-1.36 1.73-2.04 2.59.36.66-.16.68-.57.9-.24.12-.49.76-.43.8.48.39.12.34-.16.36-.45.03-.87.15-.51.68.34.5.1.48-.31.61-.24.07-.39.46-.58.71L6 24.14c-.72.05-.56.95-1.18 1.16-.24.08-.41.54.05.77-.04.07-.13.2-.13.2-.75-.44-.75.32-.79.6-.08.56.15 1.21-.78 1.25-.05 0-.11.25-.14.39-.08.4-.33.89-.18 1.18.22.42-1.05.46-.16.86-.27.63-.6 1.25-.78 1.91-.31 1.17-.53 2.37-.78 3.55-.11.51-.54 1.05.09 1.52.03.02.02.15 0 .15-.75.17-.55.71-.59 1.25-.1 1.53-.21 3.08-.57 4.56-.11.45 1.34.89-.02 1.17.03.06.05.13.08.19.1.22.23.62.39.97-.04 0-.08-.01-.12-.02-.1-.01-.33.15-.32.23.06.93-.35 1.92.3 2.79.53-.51.86.23 1.31.23.02-.21.05-.43.06-.64.02-.3.02-.61.03-.92 0-.23-1.45-.49.02-.69-.05-.24-.03-.63-.16-.7-.06-.03-.13-.05-.19-.07.21-.47.4-1.19.55-1.43.03-.04-.38-.35-.58-.54.35-.03.74.07.75-.51.04-1.29.14-2.57.21-3.86.03-.66-.18-1.46.12-1.96.71-1.16.78-2.46 1.07-3.7.08-.33-.21-.62.35-.88.43-.21.07-.7-.28-.95-.13-.09-.3-.13-.46-.19.19 0 .39.06.56 0 .24-.07.57-.18.65-.36.08-.17-.19-.47-.16-.7.02-.16.44-.37.41-.42-.36-.67.51-.41.61-.82.2-.79.71-1.5.94-2.29.22-.75 1.38-1.2.77-2.22 0-.01.09-.09.14-.13.45-.34.99-.62 1.34-1.05.34-.41.42-1.02.74-1.45.3-.39.67-.68.11-1.12 0 0 .1-.17.18-.21.29-.15.59-.3.9-.42.74-.31.97-.77.77-1.47-.02-.08.09-.28.17-.3 1-.26 1.51-1.04 2.04-1.81.08-.12.26-.19.39-.29.02.15.08.3.05.44-.12.74-1.12 1.18-.75 2.1 0 .02-.12.12-.2.14-.57.15-.82.4-.95.85-.05.15-.33.4-.38.37-.51-.28-.46.06-.47.38 0 .18 0 .47-.08.51-1.18.56-1.28 1.96-1.35 3.07-.08-.06-.17-.1-.25-.16-.03.12-.05.25-.08.37-.06.28-.18.57-.15.85.02.2.29.37.35.57.04.14-.09.33-.14.5-.1-.03-.24-.03-.28-.09-.62-.9-.5-.42-.57.23-.06.64.05 1.37-.6 1.88-.17.13-.18.46-.24.71-.02.09.02.2.03.3.09-.03.18-.05.26-.1.19-.1.38-.21.57-.31.07.2.15.39.22.59-.2.05-.41.08-.6.17-.34.17-.66.37-.98.55.79.33.29.89.22 1.34-.05.31-.26.59-.4.88.03-.29.07-.58.09-.86 0-.07-.02-.14-.05-.21-.02-.06-.07-.12-.1-.18-.07.06-.21.11-.21.17 0 1.04-1.04 1.75-.85 2.87.09.55-.22 1.17-.12 1.71.11.59-1.13.82-.33 1.49-.08.04-.18.14-.25.12-.49-.08-.39.27-.44.54-.18 1.05-.42 2.1-.53 3.16s-.1 2.13-.12 3.2c-.01.58.19 1.23-.03 1.71-.21.46-.29.76-.01 1.17.1.15.13.39.13.58 0 .77-.1 1.55-.04 2.32.07.83.34 1.64.42 2.46.05.5-.03.5.57.67.05.01.11.12.1.17-.05.24-.06.53-.2.71-.31.37-.36.6.15.81.07.03.1.46.02.5-.62.33-.46.63-.09 1.08.42.53.76 1.07.52 1.89-.18.61.06 1.35.14 2.03.02.13.19.25.28.37.03-.13.04-.27.09-.39.07-.18.17-.34.26-.51.06.17.17.34.19.52.1 1.04-.19 2.11.24 3.13.08.19.06.43.07.65 0 .05-.05.14-.1.16-.04.01-.16-.07-.15-.08.29-.86-1.52-.9-.79-1.94 0 0-.22-.22-.36-.26-.42-.14-.49-.25-.37-.76.08-.34.07-1.04-.44-1.38-.18-.65-.39-1.37-.52-1.67-.18-.41-1.13-.61-.25-1.23.03-.02-.09-.25-.13-.39-.14-.43-1.26-.6-.36-1.31.03-.02-.09-.28-.19-.37-.26-.25-.55-.48-.83-.7-.1-.08-.22-.14-.33-.2.13-.02.27-.07.4-.04.56.13.6-.05.3-.46-.06-.09-.19-.22-.17-.27.34-.64.12-.98-.23-1.26.09-.28.08-.67-.14-1.06-.13-.22-.04-.55-.09-.83-.13-.61-.28-1.22-.43-1.82l.03-.03h-.03v.01c-.15.06-.32.17-.46.14-.29-.07-.57-.22-.85-.34.02.28-.04.66.12.78.21.17.43.09.03.31-.17.09-.34.43-.3.6.14.53.4 1 1.1.97.44-.02.44.38.32.81-.22-.08-.44-.17-.67-.2-.1-.01-.32.2-.31.22.29.58-.11 1.43.75 1.8.25.1.5.35.05.65-.11.08 0 .5.02.76 1.03-.16.38.45.37.77-.01.31.01.62-.02.92-.1.85 1.14 1.4.56 2.37-.02.03.05.13.09.19.22.37.48.9.84 1.25-.09 0-.17-.01-.26-.02.17.24.32.5.51.73.19.22.41.42.62.63.27.27.86.46.15.91-.11.07-.14.46-.05.6.25.37.56.73.91 1.01.41.32-.23 1.07.55 1.2.12.02.27.15.31.27.31.85.78 1.73 1.17 2.12.55 1.22 1.47 2.04 2.72 2.54.1.04.18.16.27.24-.47.36-.1.53.17.72.67.45 1.35.89 2 1.36.18.13.41.4.37.56-.11.53-.15.54.41.54.31 0 .66-.08.17.32-.01.01.09.22.17.28 1.34.9 2.67 1.79 4.03 2.67.41.26.88.44 1.31.68.92.52 1.8 1.15 2.76 1.57.91.39 1.9.67 2.88.8.47.06.96-.06 1.39.26.1.08.27.07.41.09.83.12 1.68.17 2.48.4.33.09.51.44.85-.01.05-.07.64.22.97.38.28.13.71.49.77.43.55-.5 1.32.31 1.8-.34.1.1.22.19.3.3.54.79.84.87 1.54.43.05-.03.12-.03.19-.04.11.7.92.19 1.22.69.14.22.67.27 1.02.25.13 0 .23-.44.36-.67.05-.08.15-.13.23-.19.06.11.11.23.18.34.5.88.57.88 1.08.1.06-.09.13-.18.2-.26.02.14.04.27.07.41.03.18.06.36.09.53.2-.07.4-.15.6-.22.07-.02.17-.02.24 0 .21.09.4.24.61.28.72.16 1.45.49 1.83-.59.06-.18.3-.45.54-.72.02.29.19.58.19.87.02.61.56.93.86.5.45-.66.61-.22.95.03.8.57 1.88.21 1.95-.63.01-.12-.02-.24-.02-.36.1.09.23.16.3.27.07.12.06.29.13.41.13.2.31.37.47.56.12-.21.25-.42.36-.63.04-.08.06-.18.08-.28.08.1.19.18.23.29.13.37.26.63.75.43.16-.06.42.07.62.15.69.27.71-.24.78-.66.02-.12-.09-.27-.15-.4-.19-.44.14-.52.43-.52.09 0 .23.32.26.5.04.2 0 .43-.04.63-.09.47.02.6.57.6.79 0 .8-.41.75-.97-.01-.16.07-.32.11-.48.09.15.24.3.27.46.1.51.24.88.91.72.18-.04.41.12.62.18.62.21.41-.17.36-.43.17.17.31.36.51.48.33.21 1.33-.32 1.17-.45-.76-.66.78-.45.33-.93.16.02.43 0 .46.08.09.23.19.53.11.73-.28.71.11.7.6.59.29-.06.56-.17.84-.26.2-.07.52-.26.58-.2.82.83.46-.18.6-.37.05-.07.08-.16.12-.24.06.08.17.14.18.23.03.14 0 .29 0 .43.04.98.99.39 1.37.78.1-.25.2-.51.3-.75.04-.08.11-.15.16-.23.06.07.13.14.19.22.55.81 1.25 1.03 2.07.66.15-.07.44-.14.51-.07.66.68 1.47.23 2.18.24.37 0 .71-.13 1.14 0 .79.24.97 0 .77-.78-.03-.12-.07-.23-.11-.35.13.1.3.17.37.3.17.29.23.81.44.88.41.12.89 0 1.35-.04.37-.03.66-.13.5-.61-.03-.1.05-.24.09-.36.08.09.21.18.22.28.03.49.32.59.74.59.72 0 1.43-.95 2.17-.04 0 0 .21-.17.34-.23.12-.06.32-.16.4-.11 1.11.69 2.33.08 3.51.26 1.95.3 3.97.24 5.96.31 2.11.08 4.22.17 6.32.23.71.02 1.43-.13 2.13-.07.85.08 1.69.3 2.53.45.09.02.2-.05.31-.08-.08-.09-.15-.2-.24-.27-.13-.11-.28-.2-.43-.3.2-.02.4-.09.59-.06 1.91.31 3.82.63 5.72.97.39.07.54-.02.53-.39.2.06.42.09.6.19.13.07.28.35.3.33.63-.36 1.2.09 1.8.12.15 0 .76-.03 1.17-.07.2.33.5.29.96-.06.33-.25.74-.59 1.02.12.04.11.32.18.48.17.59-.04 1.25-.32 1.74-.14 1.02.39 2.14-.26 3.1.39.09.06.36.03.42-.05.38-.52.8-.28 1.25-.14.25.08.56.03.84.02.99-.03 1.98-.1 2.97-.1.64 0 1.29.1 1.93.15 0-.15.03-.3.01-.45-.01-.09-.09-.16-.14-.25.1.01.23-.01.29.04.96.85 2.09.66 3.22.55.92-.09 1.89-.68 2.71.33.09.11.55-.07.84-.13.13-.03.31-.17.35-.13 1 .87 2.26.06 3.33.51.16.07.44-.13.66-.23.16-.07.38-.3.43-.26.88.62 1.81.25 2.74.23 1.49-.03 2.97.35 4.48-.04.31-.08.96-.23 1.08-.11.86.83 1.78.3 2.68.25.35-.02.73-.05 1.02-.22.44-.25.4-.3.62.27.03.08.24.13.37.13 1.4-.02 2.81-.03 4.21-.08.57-.02 1.14-.12 1.71-.17.41-.03.82-.07 1.22-.05.9.03 1.8.1 2.71.12.08 0 .27-.27.25-.3-.46-.65-.05-.54.37-.42.33.09.66.21 1 .3.55.14 1.11.29 1.67.38.13.02.3-.13.44-.2-.08-.15-.14-.31-.23-.45-.11-.15-.23-.29-.34-.43.33.08.68.12.96.27.5.26.97.58 1.49.79.29.12.75.15.38-.43-.06-.1-.05-.25-.06-.39.14.1.3.18.41.3.53.6.52.6 1.25.07.08-.06.31-.05.35 0 .48.71 1.18.48 1.86.51.75.04 1.48-.46 2.23-.17l-.9-.72c.02-.03.07-.08.07-.08.39.25.78.51 1.17.76.35-.03.71-.02 1.06-.1.27-.06.66-.15.75-.34.34-.72.54-.75.97-.04.33.54 1.12.35 1.44-.22.04-.07.34-.1.42-.04.64.52 1.39.4 2.13.46.9.07 1.82-.42 2.71.09.18.1.49-.02.74-.05-.19-.09-.38-.17-.57-.26-.26-.13-.54-.24-.77-.41-.06-.04 0-.32.08-.43.08-.1.26-.12.4-.17.23.98 1.18.75 1.81 1.06v-.98c.14.11.27.22.41.32.2.14.41.27.62.4-.24.11-.47.22-.72.31h-.02c.36.07.72.15 1.08.14.77-.02 1.56-.31 2.29-.17.56.11.65.19.49-.39a.87.87 0 0 1 .05-.55c.03-.06.41-.05.45.02.09.17.06.4.09.61.02.13.01.32.1.39.45.37.9.15 1.16-.2.45-.59-.3-.24-.45-.41-.02-.03-.05-.06-.08-.09.42-.02 1.12-.06 1.16-.03.89.73 1.96.62 3 .58.15 0 .3-.12.45-.18-.14-.09-.28-.16-.41-.26-.12-.09-.22-.2-.32-.3.15-.04.3-.11.44-.1s.27.11.39.19c.86.56 1.8.52 2.75.33.1-.02.28-.2.26-.26-.17-.58.17-.39.45-.31.52.14 1.07.66 1.52-.11.07.09.14.18.2.28s.09.29.16.3c.36.07.73.1 1.09.13.17.01.34 0 .5-.01-.08-.14-.17-.27-.25-.41l-.24-.39c.17 0 .37-.06.51 0 .55.24 1.07.54 1.63.75.22.08.51-.02.76-.04-.04-.44.26-.26.48-.28 1.37-.17 2.74.04 4.07.26.6.1.76-.45 1.15-.39 1.13.19 2.24.46 3.4.2.15-.03.34.15.5.13.88-.09 1.78.57 2.65-.15.17-.14.64 0 .94.1.73.27 1.05.31 1.07-.4.97.39 1.93.8 2.91 1.15.26.09.63-.05.92-.16.69-.28.68-.3 1.12-.2.17.04.35.11.53.11.53-.02 2.34-.18 3.14-.24.23.1.46.21.69.31.04.02.19-.2.3-.34.66.75 1.57-.52 2.22.28.1-.09.19-.2.3-.28s.35-.18.35-.17c.32.52.46.45.65-.11.17-.5.66-.34 1.04-.26.66.13 1.32.28 1.98.42.43-.86 1.09-.22 1.65-.25.06 0 .11-.11.18-.12.27-.03.55-.06.82-.04.46.04.93.17 1.39.17 1.2 0 2.32-.71 3.56-.44.06.01.14-.04.21-.06.76-.25 1.51-.6 2.29-.71.33-.05.53-.09.81-.27.25-.15.73.15 1.09.11 1.12-.14 2.24-.33 3.35-.53.3-.05.56-.3.86-.34.65-.07 1.4.35 1.88-.51.06-.11.76.22 1.12.15.29-.05.59-.62.79-.57 1.08.26 1.92-.32 2.79-.69 1.45-.62 2.82-1.4 4.25-2.06 1.32-.61 2.66-1.17 3.67-2.27.45-.49.92-.98 1.41-1.42.27-.24.66-.37.93-.61.44-.39.94-.79 1.21-1.29.19-.35.28-.6.71-.66.21-.03.39-.24.57-.39.01-.01-.1-.17-.15-.26.96 0 1.16-.96 1.77-1.4.19-.14.59-.57-.17-.53-.05 0-.11-.15-.17-.22.09-.05.18-.14.27-.14.79 0 1.19-.34 1.33-1.13.06-.34.49-.61.68-.95.15-.26.2-.59.29-.88-.23-.02-.47-.02-.7-.06-.13-.02-.25-.12-.38-.18.1-.14.17-.37.3-.41.28-.08.58-.05.87-.08.53-.06.31-.35.19-.61.23-.28.61-.57.6-.84-.01-.41-.07-.66.42-.78.09-.02.09-.43.12-.67.01-.11-.06-.31-.03-.33.86-.38.49-1.2.65-1.81.19-.7.61-1.64.32-2.08-.4-.6.99-1.36-.28-1.64.12-.04.25-.06.35-.13.19-.13.37-.3.55-.44-.57-.49.14-.73.2-1.09.07-.47 0-.95.01-1.42 0-.12.05-.28.13-.34.53-.35.59-.62-.05-.92-.23-.11-.55-.38 0-.56.63-.22.89-.88.63-1.23-.34-.46-.86-.14-1.15.35-.05.09-.25.13-.38.14-.07 0-.2-.2-.19-.22.22-.28.51-.82.68-.78.78.16.75-.74 1.28-.83-.13-.31.24-.99-.6-.79-.08.02-.2-.11-.31-.17.1-.09.22-.28.3-.27.93.17.87-.23.61-.89-.08-.2.21-.53.32-.8.04-.09.03-.2.04-.31-.09.02-.18.06-.27.06-.17 0-.35-.02-.52-.04.1-.21.19-.6.31-.61.56-.05.55-.3.42-.72-.1-.34-.13-.71-.16-1.06-.02-.22-.09-.5.01-.67.45-.72.47-.69-.37-.81-.17-.02-.33-.17-.5-.27.16-.1.3-.24.47-.29.5-.16.5-.15.37-.61-.01-.05-.01-.14 0-.14.84-.15.19-.64.27-.96ZM5.15 52.9c-.11-.25-.22-.5-.31-.76-.02-.06.09-.15.14-.23.09.22.17.44.25.63-.03.16-.06.26-.08.36m2.53 12.6c.09.08.17.16.3.28-.16.14-.25.22-.35.31-.04-.12-.1-.23-.1-.35 0-.08.09-.16.15-.24m-.09 3.13c-.11 0-.24-.11-.36-.18.08-.12.14-.31.24-.33.18-.03.39.02.58.08.06.02.09.16.13.24-.2.07-.39.18-.59.19m3.61-45.02c-.1-.13-.2-.27-.3-.4l.34-.09c-.02.16-.03.33-.05.49Zm4.25-6.43c-.29-.19-.63-.36-.82-.62-.15-.21-.15-.55-.16-.84 0-.09.17-.28.25-.27.19.01.5.07.54.19.16.45.23.93.34 1.47 0 0-.12.09-.15.07M35.84 81.7c-.1-.3-.17-.46-.2-.62 0-.01.16-.06.24-.1.04.13.1.25.11.38 0 .06-.06.14-.15.33Zm6 .9s-.11.13-.19.22c-.07-.07-.22-.16-.2-.2.21-.62-.24-.63-.64-.71-.09-.02-.16-.13-.24-.2.11-.08.21-.21.33-.24.51-.1.97.41.94 1.12Zm-.27-1.54c.37.15.75.29 1.12.44-.5-.07-.94-.19-1.12-.44m4.47.79.09-.37c.18.11.36.22.55.33-.21.02-.42.03-.63.05Zm.9.24c-.1-.05-.15-.17-.23-.27.13.01.28-.01.38.05.16.1.29.26.43.4-.2-.06-.41-.09-.59-.18Zm7.04.76s0-.18.02-.19c.09-.02.25-.05.29 0 .3.35.58.72.86 1.08-.82.28-.86-.5-1.17-.9Zm.99-.42c-.1 0-.2-.1-.3-.15.09-.08.19-.16.3-.26.14.12.24.21.34.29-.12.04-.24.12-.35.11Zm1.99-.09c-.12.02-.28-.16-.42-.26.1-.09.18-.24.29-.27.13-.04.29.03.49.06-.16.22-.25.45-.37.47Zm2.75.32c-.23-.08-.44-.19-.66-.3.06-.12.13-.23.19-.35.11-.08.22-.17.32-.25.13.26.26.51.37.78 0 0-.17.14-.23.12Zm1.14-79.69c-.04.06-.33.07-.36.01-.18-.31-.32-.63-.47-.96.28.18.58.34.84.55.07.05.05.29-.01.39Zm5.57 79.62c-.13.13-.28.31-.43.32-.24 0-.48-.11-.72-.18.22-.15.42-.32.66-.42.17-.07.39 0 .59 0-.03.1-.03.22-.1.28m1.01 1.65c-.07-.28-.16-.55-.21-.83-.01-.07.1-.17.22-.35.1.35.2.61.23.87.01.09-.16.21-.24.31m3.46-80.81c-.09 0-.21.01-.28-.03-.42-.26-.83-.54-1.23-.82-.06-.04-.08-.17-.07-.25 0-.03.14-.11.17-.09.5.3 1 .61 1.45.89-.02.19-.03.31-.04.31Zm5.39-.23-.66-.69c.18-.14.4-.42.54-.39.18.04.31.33.51.57-.17.23-.28.37-.39.51m4.23-.84c-.21.26-.4.54-.66.74-.3.22-.65.31-.82-.18.41-.23 1.14.07 1.22-.72 0-.01.14-.03.18 0 .05.03.1.15.08.17Zm5.12 1.06s-.39-.12-.41-.22c-.1-.48-.13-.97-.17-1.46 0-.04.08-.08.18-.18.36.32.81.61 1.05 1.01.07.12-.4.58-.65.86Zm1.62.21c-.2-.12-.4-.25-.57-.4-.01-.01.13-.2.27-.42.21.23.37.38.48.56.02.04-.18.27-.19.26Zm2.51-.3c-.19-.05-.37-.14-.56-.22.03-.07.06-.13.1-.2.28.14.5.24.71.35-.09.03-.18.09-.25.07m2.01.41c-.08-.19-.16-.37-.23-.57 0 0 .09-.05.17-.09.08.21.15.4.21.59l-.15.06Zm1.28-1.09c-.23-.35-.45-.7-.68-1.05.6.1 1.03.32.68 1.05m.44 1.08c-.3-.26-.69-.48-.84-.81-.18-.38.12-.39.4-.25l.07.07c.18.31.35.62.53.93-.05.02-.13.07-.15.06Zm1.24-.16c-.29-.17-.6-.33-.88-.51-.07-.04-.08-.17-.1-.27 0-.02.11-.05.11-.05.42.11.84.16 1.16.35.13.08.07.48.1.73-.13-.08-.26-.17-.39-.25m3.6-.67c-.19.29-.43.56-.65.84-.1-.09-.31-.23-.3-.25.18-.32.39-.62.65-1.02.15.23.32.39.29.43Zm1.66 1.12c-.06.02-.13.04-.19.05-.14-.35-.33-.7-.41-1.07-.04-.16.13-.36.21-.55.05.17.1.34.16.5.1.26.22.52.31.79.02.08-.05.18-.08.27Zm.85.05c-.08-.14-.17-.27-.23-.42-.12-.25-.23-.5-.32-.75-.05-.14-.05-.29-.07-.44.14.08.35.13.41.25.14.26.21.56.26.7-.02.33-.03.49-.05.65Zm.45-1.02c.12-.31.29-.6.44-.89.09.15.17.31.32.57-.2.22-.36.41-.53.59-.08-.09-.26-.22-.23-.28Zm.82 82.07c-.2-.11-.34-.32-.51-.48.26.06.55.08.78.2.16.08.27.28.39.44-.22-.04-.46-.06-.66-.16m11.72.15c-.18-.07-.35-.17-.52-.26.07-.06.17-.2.22-.18.19.06.37.16.67.3-.2.08-.3.17-.36.15Zm.6-80.76c-.19-.25-.39-.49-.57-.75-.03-.05.03-.15.11-.48.22.46.35.72.45.98.03.07 0 .17 0 .25Zm1.09.64c.05-.08.11-.16.16-.23l.36.33c-.17-.03-.35-.06-.52-.1m4.81 80.36c-.12-.02-.23-.11-.34-.16.04-.07.09-.14.16-.26.17.13.3.22.43.32-.08.04-.17.12-.25.11Zm1.63-83.36c-.08-.12-.17-.23-.22-.35-.01-.03.16-.18.19-.16.11.06.2.17.33.29-.13.1-.21.17-.29.23Zm2.65.7s.09-.02.14-.04c0-.18 0-.36-.03-.53-.04-.22-.11-.43-.17-.65.18.25.39.48.54.75.05.09-.05.27-.1.41-.06.18-.13.36-.19.54-.06-.16-.12-.32-.18-.49Zm.61 1.85c-.1-.08-.21-.16-.31-.24.07 0 .15-.04.19 0 .11.06.2.15.29.23-.06 0-.12.02-.17.03Zm.45-2.81c-.09-.15-.17-.3-.25-.44.05-.07.08-.11.12-.15.1.18.2.37.3.55-.06.02-.16.06-.17.04m4.01 1.65c-.09-.1-.21-.19-.25-.31-.04-.1.02-.24.06-.53.2.28.33.4.38.55.02.07-.12.19-.19.29m5.15-2.01c-.03.06-.05.12-.08.18-.14-.1-.28-.19-.42-.29.17.04.34.08.51.11Zm-.11 1.85c-.12-.17-.25-.34-.36-.51 0-.01.07-.08.14-.17.13.21.24.39.34.57 0 .01-.08.07-.12.11m.27 81.9c.12-.06.25-.12.37-.18.05.12.11.24.16.36-.18-.06-.35-.12-.53-.18m61.09-84.12c.06.1.04.25.05.38-.12-.05-.27-.09-.33-.18-.07-.11-.04-.28-.05-.42.11.07.27.11.33.22m-6.6.78c.16-.27.31-.55.46-.82.23.25.44.54.71.75.46.36.9.21 1.07-.32.05-.14.07-.28.11-.42.09.11.2.2.27.32.1.18.16.37.24.56.12-.13.24-.37.36-.37.4 0 .86-.48 1.21.16.07.13.45.22.62.16.52-.2 1.26.44 1.61-.37.49.09.99.17 1.48.29.16.04.29.18.43.28-.13.04-.27.1-.4.11-1.19.06-2.37.13-3.56.17-1.45.04-2.89.05-4.34.05-.15 0-.31-.15-.46-.22.07-.1.15-.2.21-.3Zm-1.32-.35c.08.1.2.19.24.3.03.09-.03.21-.08.51-.22-.28-.36-.39-.39-.52-.02-.08.15-.19.23-.29M186.6.92c.71.12.81.67.86 1.25 0 .04-.13.13-.13.13-.38-.39-.78-.77-.72-1.37Zm-6.37.37c.09 0 .24.13.27.23.04.11-.02.25-.04.37-.08-.07-.15-.15-.23-.22-.14-.07-.29-.13-.43-.2.14-.07.28-.18.42-.19Zm-1.97 1.02c.14.11.3.24.46.36-.08.04-.2.13-.23.1-.17-.11-.31-.26-.46-.4.06-.02.12-.04.23-.07Zm-8.73-.35c.07.07.19.13.19.2 0 .15-.04.31-.08.56-.16-.14-.3-.22-.29-.26.04-.17.12-.33.18-.49Zm-2.52.49c.31.17.59.39.7-.2.02-.13.33-.33.45-.29.16.05.38.3.36.43-.02.15-.26.31-.44.39-.19.08-.43.08-.71.12-.13-.02-.31-.04-.48-.1-.08-.03-.13-.16-.19-.24.11-.04.25-.15.31-.11m-3.63.06c.26-.09.55-.14.82-.1.23.03.45.18.67.28.15.07.28.17.43.26-.15.07-.3.14-.45.2 0-.05-.02-.1-.03-.15-.44.04-.88.1-1.32.12-.1 0-.31-.12-.3-.17.02-.16.07-.4.18-.44m-4.81.28c.13-.19.38-.51.48-.47.77.26 1.58.02 2.33.21.41.1.67.23.91-.2.03-.06.25-.06.34-.02.07.04.15.21.12.28-.04.1-.17.17-.28.23-.06.03-.15-.01-.22 0-.2.05-.39.12-.58.19.13.21.24.42.39.62.09.12.23.2.34.29-.14.02-.29.04-.6.07-.09-.05-.32-.14-.5-.28-.31-.24-.57-.64-.98-.13 0 0-.18-.16-.29-.2-.35-.11-.6-1.03-1.09-.14-.02.04-.31 0-.37-.07-.07-.08-.06-.29 0-.38m-.89-.5c.07.07.21.15.19.2a.6.6 0 0 1-.21.28c-.03.02-.15-.09-.28-.16.12-.12.21-.22.3-.31Zm-.71.46.45.42c-.07.06-.15.12-.22.18-.11-.14-.23-.28-.33-.43-.02-.03.07-.13.09-.17Zm-6.58 1.38c.12.04.22.14.33.22-.1.03-.2.05-.53.14 0-.03-.05-.16-.09-.29.1-.03.21-.09.29-.07M150 2.3c.09.07.18.14.24.2-.12.29-.21.5-.29.71-.07-.13-.22-.27-.21-.39.02-.18.16-.34.25-.51Zm-11.1 1.3c.22-.04.44-.05.65-.08 0-.04 0-.09-.01-.13h.2c-.06.15-.1.32-.18.46-.05.09-.17.21-.23.2-.14-.02-.26-.13-.39-.19-.12-.05-.25-.09-.38-.13.11-.04.22-.11.34-.13m2.15 82.09c-.12-.04-.22-.12-.33-.18.05-.04.09-.08.17-.14.11.06.22.14.34.21-.06.04-.13.12-.18.11m19.55-.22c-.08-.08-.09-.24-.13-.36.12-.01.26-.07.34-.03.35.18.69.4 1.03.6-.45.17-.88.13-1.24-.21m5.65-.18c-.14-.06-.27-.14-.39-.22-.05-.03-.09-.09-.14-.14.09-.03.2-.09.27-.06.14.06.26.18.38.27-.04.05-.11.16-.12.15m3.35.19c-.16-.06-.31-.14-.44-.24-.03-.02.04-.16.07-.25.18.08.35.16.61.29-.13.11-.21.22-.24.21Zm38.38-83.91c-.17-.13-.33-.28-.49-.42.05.01.09.03.14.05.19.09.39.18.58.26-.08.04-.2.13-.23.11m1.93 83c.06-.11.12-.23.18-.34.04.13.08.25.13.38l-.3-.03Zm8.74.94c-.19-.13-.36-.28-.54-.42.03 0 .05-.02.07-.01l.63.24c-.06.07-.16.2-.16.19m4.22-.02c-.12-.24-.24-.47-.36-.71.1 0 .29-.03.29-.02.03.25.05.5.07.74zm2.47-.42c-.18-.03-.36-.12-.53-.19l.15-.3c.27.13.47.22.67.31-.1.07-.2.2-.29.18m4.09-1.24c-.23-.37-.5-.58-.94-.32 0-.15-.07-.4-.01-.43.17-.09.39-.09.54-.12.23.05.43.04.57.13.18.11.31.3.46.45-.22.1-.62.31-.63.29Zm1.64.32a3 3 0 0 1-.36-.13c.06-.07.14-.2.19-.19.13.03.25.11.48.24-.17.05-.25.09-.31.08m1.55-.88c-.07-.08-.2-.18-.18-.22.04-.11.16-.27.22-.26.11.01.21.14.31.23-.11.08-.22.16-.35.25M257.8 9.86l.18-.63c.01.05.02.09.04.14l.18.59c-.13-.04-.27-.07-.4-.11Zm9.81 11.39-.53-.09c.19-.12.37-.25.56-.37zm1.46 44.57c-.21-.01-.43 0-.62-.06-.19-.07-.35-.23-.52-.35.19-.19.35-.5.57-.54.18-.03.47.22.61.41.08.11-.01.35-.04.54m-.53-2.22-.23-.29c.24-.18.48-.37.73-.53.03-.02.17.15.39.34-.36.2-.62.36-.89.48m2.44-33.79c.1.05.16.18.34.39-.28.02-.45.08-.51.02-.08-.07-.08-.24-.12-.36.1-.02.22-.09.29-.05m-1.06 1.4s-.09-.16-.13-.24c.16-.06.31-.13.47-.16.06-.01.14.08.3.18-.28.1-.45.18-.63.22Zm.57 12.81.76.09c-.03.06-.08.16-.1.16-.22-.08-.44-.16-.66-.25m.69 1.87c-.12-.14-.27-.28-.35-.44-.02-.05.14-.19.22-.29.13.16.25.32.4.49-.11.1-.18.17-.26.23Zm.12-6.97c-.18-.11-.34-.26-.5-.4.09-.05.17-.11.32-.2.16.18.31.36.46.53-.09.03-.22.1-.28.07m.35-5.68c-.5-.34-1.3-.31-1.38-1.13 0-.09 0-.17-.01-.26.54.39 1.08.79 1.71 1.25-.17.08-.28.17-.31.15Zm.86 10.76c-.19.09-.3.16-.4.17-.07 0-.14-.1-.21-.16.1-.07.19-.17.3-.21.05-.02.14.08.31.2m-.17-7.48c-.18-.1-.35-.22-.51-.35-.02-.01.03-.11.05-.19.28.17.48.29.69.42-.08.04-.19.14-.23.12" />
    <path
        d="M198.78 1.11v.02l.01.01-.02-.03Zm-19.29 84.83v.03zm-11.34.57a3 3 0 0 0-.17-.08c.02.02.05.04.07.06.03.02.07.02.1.03Zm11.34-.53c.1 0 .21.04.3.02-.1-.02-.19-.04-.29-.05zM.37 48.77l-.03.03.04.02v-.04Z" />
</svg>