<svg xmlns="http://www.w3.org/2000/svg" width="263" height="45" fill="none" viewBox="0 0 263 45"><path fill="#000" d="M120.899 12.14h-5.928v23.728h5.928zM67.052 29.198c-1.4 1.47-3.19 2.514-5.758 2.514-3.316 0-5.98-2.13-6.382-5.634h18.095v-1.631c0-8.254-4.493-12.898-11.125-12.898-7.166 0-12.897 4.992-12.897 12.452 0 7.461 5.731 12.462 12.898 12.462 3.27 0 6.346-1.017 8.913-3.521zm-6.007-13.201c3.708 0 5.98 2.175 6.034 5.633H54.912c.446-3.414 2.62-5.633 6.133-5.633m20.233 2.817c0-1.783 1.881-2.523 3.459-2.523 2.014 0 3.494.829 4.626 2.398l3.77-3.77c-1.952-2.443-5.187-3.379-8.254-3.379-4.795 0-9.537 2.371-9.537 7.657 0 9.047 12.8 5.188 12.8 10.081 0 1.881-2.22 2.719-3.949 2.719-2.514 0-4.091-1.23-5.624-2.906l-3.833 3.833c2.406 2.603 5.517 3.52 9.11 3.52 4.84 0 10.232-1.978 10.232-7.611 0-9.244-12.8-5.785-12.8-10.037zm30.689-6.925c-.686-.197-1.372-.34-2.103-.34-3.12 0-5.74 1.632-7.024 4.342h-.098v-3.753h-5.928v23.728h5.928V23.164c0-1.283.784-5.98 6.373-5.98.856 0 1.72.169 2.621.383zm11.508.518h-.535v-.267h1.373v.267h-.535v1.47h-.312v-1.47zm1.034-.267h.481l.455 1.239.445-1.24h.491v1.739h-.304v-1.4l-.525 1.4h-.214l-.517-1.4v1.4h-.294V12.14zM117.886.176c2.255 0 3.993 1.631 3.993 3.788s-1.738 3.797-3.993 3.797S114 5.97 114 3.964c0-2.005 1.64-3.788 3.886-3.788M5.852 25.213c-.829-2.808.134-5.446 2.22-5.651 1.871-.187 3.476-2.969 4.795-4.796 2.71-3.752 6.872-3.129 6.667-5-.597-2.755-3.779-.705-5.838-.624-1.417.053-2.772.25-4.127.445A18.3 18.3 0 0 0 3.098 23.02c1.078 1.141 2.514 3.717 4.163 5.215.222-.098.454-.178.713-.259-.812-.936-1.944-2.184-2.113-2.763z"/><path fill="#000" d="M18.483 35.402c.971-2.532 1.515-3.646.205-6.249-2.888-.811-3.762-1.07-6.667-1.667-1.516-.312-1.57-.232-3.28.268-.268.08-.535.151-.785.223-.312.107-.419.124-.713.258-.678.303-1.159.758-1.275 1.747-.205 1.783 1.489 3.182 2.924 3.592 1.818.517 1.97-.089 2.915 1.204.668.9.793 2.567 1.132 3.663.187.615.445 1.221.757 1.819a18.4 18.4 0 0 0 4.11 1.354c.356-2.121.195-4.973.668-6.203zM39.795 22.77a18.33 18.33 0 0 0-6.026-12.8c-.33.09-.748.108-1.328 0-3.824-.695-4.724 1.534-5.838 3.13-.847 1.212-3.833 1.55-4.796 2.914-.748 1.07.027 3.164-.624 4.377-.303.561-.16 2.175.205 2.7 1.15 1.676 3.058.74 4.502 1.346 1.756.731 1.952 2.764 3.405 4.252 1.452 1.489-1.854 3.789.846 9.2.295.579.624 1.006.99 1.3a18.7 18.7 0 0 0 4.769-4.278c.41-2.736-.517-3.61.641-6.115.713-1.542 1.935-4.216 3.254-6.034z"/><path fill="#000" d="M15.559 19.491c3.129-1.328 6.516-2.389 11.08-2.772-1.16-2.79-2.452-4.76-3.958-6.57-3.37.268-6.445 1.177-9.1 2.274.391 2.068 1.131 4.572 1.978 7.068m14.574 7.702c-4.323-.054-8.103.98-10.679 2.255 1.097 2.353 3.254 5.473 4.065 6.756 1.408-.526 2.915-.918 4.091-1.096s2.736-.357 3.797-.339c-.187-2.745-.508-4.59-1.265-7.576zm-11.463.677c3.458-1.587 7.246-2.309 11.07-2.202-1.042-3.61-1.64-5.285-2.531-7.487-4.243.187-7.87 1.23-11.169 2.79 0 0 1.213 3.904 2.62 6.89zm13.29-17.435c-2.122-.383-5.206-.633-7.505-.49 1.56 2.166 2.71 4.046 3.788 6.738 2.897.072 6.846.936 8.459 1.57-.963-2.568-2.799-5.84-4.742-7.818m6.587 17.079c-.134-2.39-.5-5.58-1.382-7.8-2.344-.945-5.544-1.533-8.36-1.56.864 2.023 1.88 5.41 2.37 7.586 2.033.24 5.215.82 7.372 1.765zm-1.934-16.696c-3.022-3.699-9.867-6.854-17.48-6.373 1.703 1.123 3.12 2.817 4.36 4.216 1.898-.178 5.89.143 7.397.553-.258-.303-.57-.606-.65-.785-.214-.454.303-.552.713-.294.517.33 1.123.731 1.595 1.221.883.196 3.057.945 4.065 1.471zm3.645 17.819c-.089.294-.606.597-.846.517.035.526-.09 3.146-.223 4.162.365-.748 1.06-2.603 1.265-3.387l.295-1.15c.294-.98 1.239-4.367.383-8.815-.954-4.947-2.745-6.712-3.37-7.497-1.586-.865-3.993-1.649-3.993-1.649 2.175 2.95 2.933 4.341 4.234 7.853.758.392 2.13 1.15 2.3 1.364.134.16.143.463-.294.454-.357 0-1.052-.347-1.587-.49.57 1.917 1.016 5.491.98 7.889 0 0 .945.454.856.757zm-2.78 7.282c.311-.312.784-.98.962-1.364.178-1.569.187-4.786.125-5.722-1.89-.767-4.822-1.373-6.953-1.533.695 2.549 1.043 6.302 1.097 7.523 1.025.107 3.61.624 4.777 1.096zm-4.858 4.305c1.657-1.034 3.208-2.22 4.34-3.645-.971-.241-3.146-.544-4.216-.473 0 0-.035 2.585-.124 4.118m-4.529 2.14c.82-.268 2.924-1.221 3.36-1.507.108-1.693.09-3.61.019-4.768-2.202 0-5.313.641-7.095 1.39 1.034 1.667 2.46 3.494 3.716 4.876zM18.18 40.91c.615.624 3.057 2.237 3.057 2.237 1.622.071 3.681-.125 5.143-.374-.811-.918-2.826-3.78-3.44-4.742-1.56.66-3.54 1.863-4.77 2.879zm-6.685-6.801c1.55 1.996 3.984 4.528 5.677 5.918 1.605-1.292 3.423-2.495 4.93-3.227-1.302-2.023-3.227-4.956-4.038-6.765-2.888 1.284-4.537 2.353-6.578 4.065zm-4.127-7.996c.989 2.826 1.943 4.983 3.2 6.757 1.461-1.275 4.465-3.28 6.756-4.377-.758-1.622-1.845-4.662-2.603-6.926-2.95 1.453-5.16 2.861-7.345 4.546zm-2.371-8.477c.231 1.622 1.016 5.134 1.72 6.908 1.667-1.257 5.446-3.583 7.576-4.528-.748-2.719-1.248-4.439-1.666-7.193-3.022 1.346-6.213 3.432-7.63 4.804zm-.366-5.794c-.107.82 0 2.336.205 4.145 1.667-1.489 4.894-3.44 7.577-4.626-.312-2.05-.642-5.322-.607-6.195C9.32 6.53 6.584 9.285 4.579 12.093m8.156-8.54c3.583-1.48 7.068-2.29 11.088-1.747.445.063.41.437-.062.446l-.571.018c-3.244.053-8.004 1.078-10.473 2.478-.054 1.649.258 4.26.588 6.32 2.237-.945 5.705-1.908 8.334-2.202-1.497-1.587-3.52-3.093-3.77-3.262-.241-.179-.366-.473-.366-.856.036-.713.65-.802.98-.722 1.097-.214 2.185-.455 4.038-.392 7.844-.339 15.002 4.091 17.738 9.145 6.926 10.955 0 26.064-9.065 30.084-3.877 1.72-7.202 2.46-13.334 1.604-6.142-.855-11.16-3.86-15.064-10.17C-2.01 26.515.69 17.459 1.369 15.56 4.257 8.741 8.999 5.131 12.725 3.553zM3.48 17.031c-.08-1.177-.17-2.79-.17-2.79-.864 1.88-1.38 3.022-1.621 5.215.606-1.07 1.8-2.425 1.8-2.425zm12.657 23.88c-1.301-.972-4.528-4.03-5.865-5.874-.49.285-1.043 1.078-1.747 1.212-.276.053-.909.125-1.096.053-.187-.08.044-.472.24-.73a9 9 0 0 1 1.596-1.623c-1.586-2.326-2.344-4.029-3.423-6.837A18 18 0 0 0 4.22 28.28c-.187.143-.686.232-.936.018-.446-.401-.454-1.105.17-1.542.258-.187 1.524-1.06 1.827-1.31-.785-2.256-1.435-5.215-1.605-6.748-.517.454-1.256.971-1.461 1.105-.295.08-.49-.009-.58-.027-.294 3.183.045 6.695.99 9.859 1.63 5.446 6.194 10.643 12.363 12.577.142-.214.855-1.034 1.15-1.301m3.21 2.175c-.607-.348-1.373-.892-2.086-1.364-.295.258-.535.642-.767.954.82.276 1.916.303 2.852.41"/><path fill="#141414" d="M139.815 31.935h12.83v2.932H136.38v-23.55h15.752v2.895h-12.317v7.052h11.582v2.83h-11.582v7.85zm28.233-8.852c-.348-.51-.871-.937-1.558-1.28a4.94 4.94 0 0 0-2.215-.52c-.852 0-1.616.158-2.274.464A5.2 5.2 0 0 0 160.318 23a5.3 5.3 0 0 0-1.055 1.81 6.5 6.5 0 0 0-.368 2.161c0 .752.126 1.475.368 2.162s.6 1.29 1.055 1.81a5.2 5.2 0 0 0 1.702 1.252c.668.316 1.432.464 2.293.464s1.587-.158 2.274-.464a4.6 4.6 0 0 0 1.684-1.262l2.186 1.893c-.696.78-1.557 1.383-2.602 1.81-1.045.435-2.216.649-3.542.649s-2.447-.195-3.521-.594a8.5 8.5 0 0 1-2.797-1.68 7.8 7.8 0 0 1-1.857-2.607c-.455-1.02-.678-2.162-.678-3.424s.223-2.375.658-3.396a7.7 7.7 0 0 1 1.839-2.626c.783-.733 1.722-1.299 2.796-1.698a9.9 9.9 0 0 1 3.483-.603q1.727 0 3.454.668c1.152.446 2.051 1.086 2.719 1.93zm16.69 11.777a23 23 0 0 1-.106-1.346c-.019-.5-.039-.918-.039-1.252h-.067c-.417.844-1.113 1.559-2.1 2.143a6.3 6.3 0 0 1-3.28.882q-1.596 0-2.758-.501c-.774-.334-1.412-.789-1.906-1.383a5.9 5.9 0 0 1-1.112-2.041 8.3 8.3 0 0 1-.368-2.496v-9.78h3.261v8.713c0 .64.048 1.262.155 1.846.106.585.29 1.105.57 1.55.281.445.658.798 1.142 1.067s1.113.399 1.877.399c1.316 0 2.38-.473 3.193-1.41.813-.947 1.209-2.2 1.209-3.777v-8.379h3.261v12.378c0 .427.01.965.039 1.633.019.668.058 1.253.106 1.763h-3.086zm18.316-10.218c0-1.178-.368-2.041-1.113-2.607s-1.722-.845-2.951-.845c-.929 0-1.8.177-2.622.52q-1.233.513-2.061 1.318l-1.732-1.995q1.22-1.1 2.961-1.726a11.1 11.1 0 0 1 3.764-.631c1.18 0 2.206.167 3.067.482.871.325 1.577.761 2.138 1.318a5.4 5.4 0 0 1 1.248 1.967c.281.752.416 1.559.416 2.431v6.885c0 .529.02 1.095.049 1.68.038.584.096 1.066.193 1.447h-2.951a9.5 9.5 0 0 1-.28-2.264h-.107a6.24 6.24 0 0 1-2.274 1.967c-.919.473-1.993.696-3.241.696a8.8 8.8 0 0 1-2.032-.25 6 6 0 0 1-1.925-.817 4.7 4.7 0 0 1-1.442-1.494c-.377-.622-.571-1.383-.571-2.292 0-1.197.339-2.143 1.007-2.84.667-.695 1.548-1.233 2.641-1.595 1.084-.362 2.312-.603 3.677-.715a51 51 0 0 1 4.131-.167v-.436zm-.803 2.7c-.813 0-1.645.037-2.516.102s-1.654.195-2.361.4c-.706.203-1.287.5-1.751.9q-.696.595-.697 1.595c0 .464.097.854.291 1.16s.454.566.783.761c.32.204.678.334 1.074.418.397.074.794.12 1.21.12 1.528 0 2.699-.436 3.522-1.317.822-.882 1.228-1.977 1.228-3.313v-.835h-.803zm21.953 5.021c-.619.956-1.47 1.68-2.544 2.18a7.9 7.9 0 0 1-3.387.752c-1.267 0-2.418-.213-3.434-.65-1.016-.436-1.887-1.02-2.603-1.78a7.9 7.9 0 0 1-1.664-2.664 8.9 8.9 0 0 1-.59-3.257c0-1.15.193-2.236.59-3.247a7.9 7.9 0 0 1 1.683-2.645 7.6 7.6 0 0 1 2.622-1.763c1.016-.417 2.139-.63 3.367-.63 1.345 0 2.506.268 3.503.816.996.538 1.78 1.206 2.361 1.976h.067V9.704h3.261V34.85h-3.154v-2.496h-.068zm-10.817-5.4c0 .733.116 1.438.349 2.125.232.686.58 1.29 1.045 1.828a5.25 5.25 0 0 0 1.702 1.28c.678.325 1.461.483 2.361.483.832 0 1.587-.158 2.274-.464a5.4 5.4 0 0 0 1.751-1.244 5.7 5.7 0 0 0 1.132-1.81 6 6 0 0 0 .397-2.152 6 6 0 0 0-.397-2.152 5.8 5.8 0 0 0-1.132-1.828 5.5 5.5 0 0 0-1.751-1.262 5.5 5.5 0 0 0-2.274-.464c-.9 0-1.683.157-2.361.464a4.95 4.95 0 0 0-1.702 1.262 5.3 5.3 0 0 0-1.045 1.828 6.6 6.6 0 0 0-.349 2.124zm35.867-.017c0 1.215-.222 2.338-.677 3.359a8 8 0 0 1-1.877 2.644 8.6 8.6 0 0 1-2.825 1.726c-1.084.408-2.255.612-3.503.612s-2.419-.204-3.502-.612c-1.084-.408-2.023-.984-2.806-1.726a8.2 8.2 0 0 1-1.858-2.644c-.455-1.021-.677-2.144-.677-3.36s.222-2.328.677-3.34a7.9 7.9 0 0 1 1.858-2.607c.783-.733 1.722-1.3 2.806-1.717 1.083-.408 2.254-.612 3.502-.612s2.419.204 3.503.612a8.6 8.6 0 0 1 2.825 1.717 8.1 8.1 0 0 1 1.877 2.607c.455 1.012.677 2.125.677 3.34m-3.396.018a6.4 6.4 0 0 0-.368-2.152 5.4 5.4 0 0 0-1.064-1.81 5 5 0 0 0-1.722-1.243c-.687-.306-1.471-.464-2.351-.464-.881 0-1.664.158-2.351.464a5 5 0 0 0-1.723 1.243 5.4 5.4 0 0 0-1.064 1.81 6.4 6.4 0 0 0-.368 2.152c0 .752.126 1.476.368 2.153.242.687.6 1.29 1.064 1.828a5.1 5.1 0 0 0 1.723 1.262c.687.315 1.47.464 2.351.464.88 0 1.664-.158 2.351-.464a4.9 4.9 0 0 0 1.722-1.262 5.7 5.7 0 0 0 1.064-1.828 6.4 6.4 0 0 0 .368-2.153m7.353-6.104a27 27 0 0 0-.106-1.763h3.086c.049.399.078.863.107 1.382.029.52.039.947.039 1.28h.106a5.6 5.6 0 0 1 2.032-2.245c.89-.566 1.886-.844 2.999-.844.513 0 .939.046 1.287.13l-.135 2.895a6.4 6.4 0 0 0-1.49-.167c-.784 0-1.471.139-2.052.417a4.2 4.2 0 0 0-1.441 1.114 4.5 4.5 0 0 0-.852 1.614 6.6 6.6 0 0 0-.28 1.912v8.286h-3.261V22.492c0-.418-.01-.965-.039-1.633"/></svg>